HIERARCHY
ROOT Hips
{
	OFFSET 0.000000 0.000000 0.000000
	CHANNELS 6 Xposition Yposition Zposition Xrotation Yrotation Zrotation
	JOINT Spine
	{
		OFFSET 0.000000 0.042231 0.063346
		CHANNELS 3 Xrotation Yrotation Zrotation
		JOINT Spine1
		{
			OFFSET 0.000000 0.014667 0.083179
			CHANNELS 3 Xrotation Yrotation Zrotation
			JOINT Spine2
			{
				OFFSET 0.000000 0.007361 0.084141
				CHANNELS 3 Xrotation Yrotation Zrotation
				JOINT Spine3
				{
					OFFSET 0.000000 0.000000 0.084462
					CHANNELS 3 Xrotation Yrotation Zrotation
					JOINT Neck
					{
						OFFSET 0.000000 -0.031673 0.221713
						CHANNELS 3 Xrotation Yrotation Zrotation
						JOINT Head
						{
							OFFSET 0.000000 -0.020167 0.114371
							CHANNELS 3 Xrotation Yrotation Zrotation
							End Site
							{
								OFFSET 0.000000 0.000000 0.000000
							}
						}
					}
					JOINT RightShoulder
					{
						OFFSET -0.029161 -0.048602 0.157471
						CHANNELS 3 Xrotation Yrotation Zrotation
						JOINT RightArm
						{
							OFFSET -0.144834 0.000000 0.000000
							CHANNELS 3 Xrotation Yrotation Zrotation
							JOINT RightForeArm
							{
								OFFSET -0.274949 0.000000 0.000000
								CHANNELS 3 Xrotation Yrotation Zrotation
								JOINT RightHand
								{
									OFFSET -0.254725 0.000000 0.000000
									CHANNELS 3 Xrotation Yrotation Zrotation
									JOINT RightHandEnd
									{
										OFFSET -0.068160 0.000000 0.000000
										CHANNELS 3 Xrotation Yrotation Zrotation
										End Site
										{
											OFFSET 0.000000 0.000000 0.000000
										}
									}
									JOINT RightHandThumb1
									{
										OFFSET -0.027264 -0.045440 -0.018176
										CHANNELS 3 Xrotation Yrotation Zrotation
										End Site
										{
											OFFSET 0.000000 0.000000 0.000000
										}
									}
								}
							}
						}
					}
					JOINT LeftShoulder
					{
						OFFSET 0.029161 -0.048602 0.157471
						CHANNELS 3 Xrotation Yrotation Zrotation
						JOINT LeftArm
						{
							OFFSET 0.144834 0.000000 0.000000
							CHANNELS 3 Xrotation Yrotation Zrotation
							JOINT LeftForeArm
							{
								OFFSET 0.274949 0.000000 0.000000
								CHANNELS 3 Xrotation Yrotation Zrotation
								JOINT LeftHand
								{
									OFFSET 0.254725 0.000000 0.000000
									CHANNELS 3 Xrotation Yrotation Zrotation
									JOINT LeftHandEnd
									{
										OFFSET 0.068160 0.000000 0.000000
										CHANNELS 3 Xrotation Yrotation Zrotation
										End Site
										{
											OFFSET 0.000000 0.000000 0.000000
										}
									}
									JOINT LeftHandThumb1
									{
										OFFSET 0.027264 -0.045440 -0.018176
										CHANNELS 3 Xrotation Yrotation Zrotation
										End Site
										{
											OFFSET 0.000000 0.000000 0.000000
										}
									}
								}
							}
						}
					}
				}
			}
		}
	}
	JOINT RightUpLeg
	{
		OFFSET -0.086512 0.000000 -0.025273
		CHANNELS 3 Xrotation Yrotation Zrotation
		JOINT RightLeg
		{
			OFFSET 0.000000 0.000000 -0.433119
			CHANNELS 3 Xrotation Yrotation Zrotation
			JOINT RightFoot
			{
				OFFSET 0.000000 0.000000 -0.404688
				CHANNELS 3 Xrotation Yrotation Zrotation
				JOINT RightToeBase
				{
					OFFSET 0.000000 -0.126496 -0.046041
					CHANNELS 3 Xrotation Yrotation Zrotation
					End Site
					{
						OFFSET 0.000000 0.000000 0.000000
					}
				}
			}
		}
	}
	JOINT LeftUpLeg
	{
		OFFSET 0.086512 0.000000 -0.025273
		CHANNELS 3 Xrotation Yrotation Zrotation
		JOINT LeftLeg
		{
			OFFSET 0.000000 0.000000 -0.433119
			CHANNELS 3 Xrotation Yrotation Zrotation
			JOINT LeftFoot
			{
				OFFSET 0.000000 0.000000 -0.404688
				CHANNELS 3 Xrotation Yrotation Zrotation
				JOINT LeftToeBase
				{
					OFFSET 0.000000 -0.126496 -0.046041
					CHANNELS 3 Xrotation Yrotation Zrotation
					End Site
					{
						OFFSET 0.000000 0.000000 0.000000
					}
				}
			}
		}
	}
}
MOTION
Frames: 10
Frame Time: 0.033333
-0.002225 0.037407 0.942617 24.912400 -11.191700 177.419100 1.217400 -6.439900 -1.843000 1.188900 -1.867300 -0.070100 4.870000 -4.846000 2.694000 1.813300 -1.353700 1.622900 -4.956400 2.191500 5.421100 -0.076400 7.385300 0.333000 35.777900 15.931200 -18.046500 65.592000 -50.904400 55.123900 -0.000100 0.000100 108.710300 -21.453900 13.954400 4.907400 0.000000 0.000000 0.000000 0.000000 0.000000 0.000000 42.698500 -17.245300 5.497700 46.092000 58.678400 -41.960500 -0.000100 -0.000100 -96.551700 -32.684700 -17.316900 -17.324100 0.000000 0.000000 0.000000 0.000000 0.000000 0.000000 -41.821600 -5.861500 -15.816900 82.934800 0.000000 0.000000 -3.789500 -3.841400 -41.377100 8.810600 0.000000 0.000000 5.035800 -12.452100 15.667500 23.064500 0.000000 0.000000 16.508900 14.391400 15.310000 -14.707800 0.000000 0.000000 
0.000597 0.048298 0.955563 28.014000 -11.618800 177.394900 1.856700 -6.688000 -1.795900 1.610600 -2.035800 -0.089900 4.637100 -4.751500 2.584400 1.568100 -1.210000 1.441400 -6.352900 1.566900 5.329400 1.040600 7.311500 0.464700 35.626400 15.947400 -17.422700 65.386500 -50.757400 55.009300 -0.000100 0.000100 108.825800 -21.295600 13.877600 4.844300 0.000000 0.000000 0.000000 0.000000 0.000000 0.000000 42.741400 -16.923600 5.524300 47.029000 59.266600 -42.682900 -0.000100 -0.000100 -95.828000 -32.774900 -17.295900 -17.342800 0.000000 0.000000 0.000000 0.000000 0.000000 0.000000 -46.753700 -5.739900 -16.004400 89.610700 0.000000 0.000000 -4.832800 -3.482400 -40.180800 8.255600 0.000000 0.000000 5.351200 -13.274000 14.018600 27.650900 0.000000 0.000000 23.102900 16.248300 18.048200 -12.727900 0.000000 0.000000 
0.003251 0.057976 0.967941 31.162300 -11.792200 177.442700 2.612600 -6.649400 -1.577600 2.143300 -2.136000 -0.110500 4.568000 -4.655600 2.487000 1.353800 -1.111000 1.304100 -8.089300 0.728100 5.131300 2.477300 7.328000 0.625400 35.405600 15.773900 -16.775200 64.860500 -50.575000 54.573700 -0.000100 0.000100 108.914400 -20.966200 13.760100 4.607100 0.000000 0.000000 0.000000 0.000000 0.000000 0.000000 42.534600 -16.369800 5.588500 47.753400 59.515500 -43.215800 -0.000100 -0.000100 -95.169100 -32.661200 -17.254300 -17.315900 0.000000 0.000000 0.000000 0.000000 0.000000 0.000000 -51.599800 -5.594000 -15.901200 94.801600 0.000000 0.000000 -5.423000 -3.348100 -38.882000 7.742300 0.000000 0.000000 4.386100 -13.600100 11.350900 33.832100 0.000000 0.000000 26.985500 18.345900 22.799000 -4.561300 0.000000 0.000000 
0.004717 0.066200 0.979559 33.925600 -11.416100 177.621500 3.056500 -6.135000 -1.222500 2.499900 -2.155500 -0.133200 4.940900 -4.623900 2.323200 1.280200 -0.986700 1.161500 -10.430400 -0.351800 4.822100 4.646300 7.429800 0.783400 34.878600 15.199900 -15.951500 63.826000 -50.488400 53.293100 -0.000100 0.000100 109.019000 -20.667600 13.608300 4.319500 0.000000 0.000000 0.000000 0.000000 0.000000 0.000000 42.045600 -15.497000 5.537300 47.687600 59.531800 -42.877400 -0.000100 -0.000100 -94.673300 -32.388100 -17.118800 -17.284000 0.000000 0.000000 0.000000 0.000000 0.000000 0.000000 -56.247600 -5.145000 -15.337800 98.497900 0.000000 0.000000 -5.969400 -3.382100 -37.516000 7.591500 0.000000 0.000000 1.561300 -12.906100 7.872900 42.280700 0.000000 0.000000 25.109700 19.660100 29.216400 2.606300 0.000000 0.000000 
0.004844 0.072753 0.989439 35.907300 -10.651800 177.985100 2.928800 -5.345500 -0.887000 2.576200 -2.171700 -0.175200 5.715600 -4.595000 2.091100 1.351900 -0.797700 1.006700 -13.331100 -1.594800 4.323200 7.465300 7.572800 0.825300 34.045400 14.275100 -15.014300 62.367000 -50.447100 51.286700 -0.000100 0.000100 109.131800 -20.342200 13.534500 4.148700 0.000000 0.000000 0.000000 0.000000 0.000000 0.000000 41.429600 -14.499500 5.466300 46.893000 59.509900 -41.812000 -0.000100 -0.000100 -94.160300 -32.104000 -16.983400 -17.302300 0.000000 0.000000 0.000000 0.000000 0.000000 0.000000 -60.794600 -4.403600 -14.445400 101.056800 0.000000 0.000000 -6.776700 -3.368500 -36.088400 7.243500 0.000000 0.000000 -3.490400 -11.272900 4.507100 52.985700 0.000000 0.000000 18.844300 18.768200 35.587700 4.620600 0.000000 0.000000 
0.004216 0.078036 0.997077 37.379900 -9.829500 178.459700 2.610000 -4.621500 -0.627100 2.534500 -2.103900 -0.205300 6.632600 -4.530300 1.873700 1.467400 -0.586200 0.855000 -16.474500 -2.871000 3.583100 10.396000 7.739100 0.742600 33.205600 13.275400 -14.121400 60.844700 -50.351200 49.146200 -0.000100 0.000100 109.225700 -20.064600 13.623100 4.135400 0.000000 0.000000 0.000000 0.000000 0.000000 0.000000 40.816400 -13.654700 5.573700 45.977900 59.549200 -40.670200 -0.000100 -0.000100 -93.560200 -31.932200 -16.980200 -17.396500 0.000000 0.000000 0.000000 0.000000 0.000000 0.000000 -64.872100 -3.615000 -13.415600 102.887600 0.000000 0.000000 -7.560700 -3.279500 -34.862400 6.373100 0.000000 0.000000 -10.019400 -9.096800 2.187600 64.674600 0.000000 0.000000 12.456500 16.404400 39.751600 2.904400 0.000000 0.000000 
0.003117 0.082268 1.002566 38.520100 -9.135900 178.851200 2.320000 -4.088500 -0.409400 2.524600 -2.077500 -0.220100 7.543000 -4.304700 1.773300 1.579600 -0.357900 0.716800 -19.813100 -4.142300 2.636500 13.205400 7.985200 0.643200 32.489000 12.351000 -13.249400 59.550300 -50.202300 47.178400 -0.000100 0.000100 109.284000 -20.252200 13.844200 4.229700 0.000000 0.000000 0.000000 0.000000 0.000000 0.000000 40.281100 -13.033700 5.909800 45.422500 59.678400 -39.928600 -0.000100 -0.000100 -93.044800 -31.877300 -17.078500 -17.539200 0.000000 0.000000 0.000000 0.000000 0.000000 0.000000 -68.295800 -2.980100 -12.338700 104.265800 0.000000 0.000000 -8.094400 -3.153200 -33.986200 5.539200 0.000000 0.000000 -17.491000 -6.765000 1.242000 76.063900 0.000000 0.000000 8.548400 14.316200 40.902700 0.973500 0.000000 0.000000 
0.001285 0.085324 1.006152 39.161400 -8.523400 178.953500 1.976100 -3.742700 -0.177300 2.463600 -2.169300 -0.224000 8.479700 -3.832800 1.856200 1.733800 -0.058700 0.567700 -23.662400 -5.437200 1.556700 16.110600 8.415300 0.613400 31.689000 11.427000 -12.313400 58.530800 -49.952400 45.331900 -0.000100 0.000100 109.301800 -21.064000 14.091400 4.393500 0.000000 0.000000 0.000000 0.000000 0.000000 0.000000 39.796000 -12.505700 6.383700 45.354700 59.892300 -39.662400 -0.000100 -0.000100 -92.784800 -31.818900 -17.102700 -17.628600 0.000000 0.000000 0.000000 0.000000 0.000000 0.000000 -71.286700 -2.534900 -11.153100 105.401900 0.000000 0.000000 -8.697800 -2.953400 -33.242600 5.146900 0.000000 0.000000 -25.883800 -4.482200 1.611000 86.299300 0.000000 0.000000 6.985700 13.137400 39.838000 0.244400 0.000000 0.000000 
-0.000975 0.086970 1.008271 39.133500 -7.855600 178.820200 1.440700 -3.438400 0.013200 2.228700 -2.419200 -0.231500 9.505100 -3.053900 2.104700 1.973800 0.315800 0.398400 -28.300100 -6.798300 0.338700 19.382100 9.166900 0.678600 30.544900 10.255500 -11.344500 57.619600 -49.442900 43.504200 -0.000100 0.000100 109.331200 -21.929500 14.276600 4.570900 0.000000 0.000000 0.000000 0.000000 0.000000 0.000000 39.230200 -11.943500 6.925700 45.560500 60.081800 -39.628300 -0.000100 -0.000100 -92.737500 -31.604900 -17.010800 -17.578800 0.000000 0.000000 0.000000 0.000000 0.000000 0.000000 -74.099200 -2.096100 -9.937400 106.443100 0.000000 0.000000 -9.557300 -2.652300 -32.488100 4.933600 0.000000 0.000000 -35.273600 -2.339400 2.910100 94.887300 0.000000 0.000000 6.378100 12.868200 38.050700 -0.163800 0.000000 0.000000 
-0.002639 0.087315 1.009843 38.669100 -7.049000 178.777600 0.807300 -3.038400 0.081300 1.881900 -2.676700 -0.240000 10.540100 -2.090100 2.349500 2.291600 0.711300 0.231300 -33.558900 -8.325200 -1.184200 22.901000 10.464800 0.943100 29.061000 8.646900 -10.433500 56.618600 -48.642700 41.598900 -0.000100 0.000100 109.481300 -22.191100 14.361500 4.698100 0.000000 0.000000 0.000000 0.000000 0.000000 0.000000 38.496400 -11.427400 7.542600 45.759500 60.119900 -39.533600 -0.000100 -0.000100 -92.778900 -31.233500 -16.936100 -17.461700 0.000000 0.000000 0.000000 0.000000 0.000000 0.000000 -76.544900 -1.347000 -8.980600 107.488800 0.000000 0.000000 -10.284100 -2.329000 -31.845800 4.651500 0.000000 0.000000 -45.237700 -0.272600 4.558300 101.527100 0.000000 0.000000 5.667000 13.384200 36.535300 -0.514600 0.000000 0.000000 
